<svg width="232" height="25" viewBox="0 0 232 25" fill="none" xmlns="http://www.w3.org/2000/svg">
<path d="M220.058 18.9489C215.429 20.0269 210.815 21.1319 206.187 22.1689C204.545 22.5419 202.792 23.261 201.224 22.9569C193.91 21.5199 186.645 19.668 179.33 18.217C177.016 17.761 174.405 17.457 172.216 18.176C165.41 20.415 158.83 20.76 152.062 17.913C150.333 17.181 147.932 17.457 146.117 18.148C139.71 20.552 133.602 22.045 126.984 18.286C125.082 17.208 121.561 18.2449 119.347 19.5299C112.268 23.6339 105.414 24.3109 98.2369 19.9999C97.0804 19.3089 95.127 19.3089 93.8834 19.8759C85.9351 23.5099 78.3336 22.9719 70.6336 18.7839C68.8924 17.8439 65.9692 18.1339 64.1271 19.1159C55.3946 23.8279 46.9104 25.293 38.5259 18.425C36.0377 16.393 34.2223 18.0239 32.2689 19.5579C26.9074 23.7729 21.1723 26.4119 14.4432 24.2009C7.35208 21.8779 0.585796 13.2969 0.0255156 5.58495C-0.0986044 3.88495 0.225036 1.03795 1.1078 0.581949C2.61348 -0.192051 5.26292 -0.26105 6.48208 0.77495C8.758 2.68195 10.6488 5.39095 12.2044 8.12695C15.4756 13.8339 17.0184 14.3729 22.069 10.4629C23.8728 9.06695 25.5397 7.46395 27.1695 5.81995C31.8339 1.14895 35.4542 0.982946 40.2311 5.30895C48.4288 12.7159 49.7721 12.965 58.7668 6.73195C63.0831 3.74695 67.1257 3.85795 71.0941 6.86995C76.879 11.265 82.4516 11.734 88.3224 7.07695C91.4567 4.58995 95.0272 4.58994 98.1244 7.20094C103.1 11.4159 107.926 10.8079 112.877 7.38095C113.86 6.68995 114.855 6.01295 115.838 5.30795C119.358 2.80695 122.853 2.59895 126.3 5.48795C130.305 8.83195 134.559 8.90095 138.614 5.99895C143.378 2.59895 147.72 2.37795 152.72 5.66695C156.975 8.47195 161.803 7.79495 166.169 5.39095C170.733 2.87595 175.063 2.69595 179.403 5.83295C179.827 6.13695 180.324 6.49595 180.81 6.53795C188.697 7.13195 196.496 10.2139 204.507 7.38095C206.696 6.60695 209.047 6.26195 211.35 6.13695C215.193 5.92995 219.074 5.74995 222.881 6.13695C225.193 6.38595 227.932 7.11795 229.536 8.77595C231.053 10.3239 231.987 13.3639 231.999 15.7549C232.024 19.0299 229.187 19.4719 226.811 19.6519C224.622 19.8179 222.408 19.6929 220.205 19.6929C220.144 19.4579 220.082 19.2089 220.02 18.9739L220.057 18.9459L220.058 18.9489Z" fill="#985184"/>
</svg>
