<svg width="169" height="53" viewBox="0 0 169 53" fill="none" xmlns="http://www.w3.org/2000/svg">
    <mask id="mask0_136_876" style="mask-type:luminance" maskUnits="userSpaceOnUse" x="0" y="0" width="169" height="53">
        <path d="M0 0H169V53H0V0Z" fill="white"/>
    </mask>
    <g mask="url(#mask0_136_876)">
        <path d="M8.21677 42.906C3.46956 42.5832 2.18686 34.4707 4.46159 30.2961C4.43033 29.9734 4.41512 29.6507 4.40074 29.3279C-1.55312 28.1013 -1.52269 14.1357 4.8427 14.394C5.5153 14.4155 6.18625 14.4155 6.87323 14.4586C2.7209 11.3169 3.43829 -0.0233352 9.07191 0.213368C58.5036 2.23611 107.92 4.25885 157.352 6.2816C163.458 6.53982 163.687 18.461 158.619 20.9141C160.466 20.9141 162.298 20.9141 164.145 20.8927C170.649 20.828 170.588 35.4821 164.145 35.9341C157.199 36.4289 150.268 36.8808 143.322 37.2466C145.521 37.3972 147.719 37.548 149.933 37.6986C156.375 38.1504 156.421 53.1918 149.933 52.74C102.684 49.4692 55.4506 46.1769 8.20155 42.906H8.21677Z" fill="#F57F22"/>
    </g>
</svg>
